<?xml version="1.0" encoding="utf-8"?>
<!-- Generator: Adobe Illustrator 16.0.0, SVG Export Plug-In . SVG Version: 6.00 Build 0)  -->
<!DOCTYPE svg PUBLIC "-//W3C//DTD SVG 1.1//EN" "http://www.w3.org/Graphics/SVG/1.1/DTD/svg11.dtd">
<svg version="1.1" xmlns="http://www.w3.org/2000/svg" xmlns:xlink="http://www.w3.org/1999/xlink" x="0px" y="0px"
	 width="841.89px" height="841.89px" viewBox="0 0 841.89 841.89" enable-background="new 0 0 841.89 841.89" xml:space="preserve">
<g id="logo_v2" display="none">
	<g display="inline">
		<g>
			<path fill="#415E67" d="M149.003,406.44l0.194,5.851c0.012,0.503,0.036,0.96,0.066,1.394l0.081,1.333l0.159,2.665
				c0.083,1.753,0.285,3.639,0.419,5.451c0.125,1.831,0.336,3.655,0.522,5.48c0.773,7.297,1.854,14.555,3.236,21.747
				c1.372,7.194,3.091,14.315,5.089,21.347c1.982,7.036,4.261,13.98,6.828,20.812c10.264,27.335,25.326,52.698,44.064,74.876
				c4.669,5.561,9.636,10.867,14.774,15.995l1.927,1.922l1.919,1.83l2.122,2.015l1.062,1.008l0.983,0.885l3.899,3.499l4.13,3.534
				c11.118,9.29,22.955,17.682,35.444,24.931c24.912,14.605,52.333,24.774,80.63,30.047c28.304,5.264,57.449,5.647,85.802,1.258
				c28.349-4.429,55.876-13.72,80.955-27.431c25.106-13.689,47.705-31.729,66.872-53.019c19.03-21.225,34.411-45.71,45.169-72.054
				c5.363-13.18,9.662-26.801,12.68-40.711c3.029-13.905,4.893-28.063,5.569-42.278l0.183-5.333
				c0.062-1.778,0.043-3.557,0.071-5.335l0.014-1.334l-0.014-1.156l-0.042-2.926l-0.021-1.463c-0.007-0.49-0.011-0.992-0.033-1.388
				l-0.103-2.537l-0.096-2.537l-0.165-2.657c-0.112-1.774-0.203-3.551-0.377-5.321c-0.276-3.546-0.668-7.081-1.089-10.611
				c-1.758-14.114-4.768-28.06-8.895-41.651c-8.256-27.188-21.215-52.902-38.197-75.672c-4.223-5.709-8.731-11.209-13.453-16.522
				c-1.162-1.345-2.364-2.654-3.582-3.95c-1.213-1.3-2.403-2.62-3.663-3.877l-1.864-1.909l-0.931-0.955l-0.233-0.239
				c-0.277-0.276,0.119,0.109-0.021-0.026l-0.522-0.512l-4.183-4.094c-4.855-4.615-10.319-9.432-15.823-13.867
				c-5.521-4.474-11.247-8.686-17.137-12.651c-11.761-7.958-24.179-14.963-37.15-20.783c-12.942-5.877-26.391-10.692-40.185-14.284
				c-13.779-3.65-27.892-6.09-42.129-7.417c-14.247-1.29-28.614-1.372-42.921-0.336c-28.612,2.185-56.971,9.087-83.553,20.578
				c-13.31,5.708-26.129,12.625-38.419,20.477c-6.153,3.918-12.093,8.184-17.919,12.624c-5.834,4.435-11.466,9.155-16.99,14.035
				v-22.474l108.909,114.189c4.634,4.858,4.451,12.552-0.407,17.186c-4.71,4.493-12.11,4.437-16.778,0.001L201.685,225.197
				c-6.1-5.817-6.415-15.422-0.774-21.624l0.774-0.85c11.12-12.208,23.347-23.535,36.616-33.597
				c13.233-10.104,27.407-19.095,42.35-26.663c14.924-7.599,30.553-13.918,46.659-18.763c16.11-4.816,32.655-8.321,49.417-10.259
				c16.761-1.972,33.71-2.436,50.596-1.479c16.894,0.961,33.704,3.513,50.216,7.384c16.511,3.896,32.657,9.367,48.267,16.085
				c15.601,6.754,30.563,14.979,44.759,24.346c7.099,4.687,13.956,9.731,20.59,15.047c6.661,5.341,12.953,10.806,19.42,16.932
				l4.198,4.078l0.524,0.509l0.772,0.779l1.111,1.14l2.221,2.282c1.496,1.506,2.923,3.081,4.368,4.637
				c1.45,1.551,2.883,3.12,4.272,4.727c5.634,6.361,11.017,12.954,16.067,19.797c20.291,27.307,35.827,58.18,45.61,90.756
				c4.869,16.293,8.383,32.987,10.407,49.858c0.486,4.219,0.931,8.444,1.244,12.68c0.191,2.115,0.298,4.236,0.421,6.356l0.179,3.185
				l0.113,3.312l0.106,3.312c0.022,0.579,0.024,1.052,0.028,1.538l0.015,1.463l0.028,2.926l0.011,1.771l-0.021,1.592
				c-0.039,2.123-0.036,4.246-0.115,6.368l-0.25,6.363c-1.738,33.92-9.364,67.529-22.473,98.863
				c-13.055,31.372-31.7,60.32-54.62,85.32l-4.51,4.812l-4.142,4.221l-1.027,1.042l-0.761,0.753l-0.57,0.552l-2.281,2.203
				l-2.284,2.2l-2.337,2.146c-6.224,5.729-12.668,11.23-19.38,16.391c-13.424,10.312-27.685,19.559-42.683,27.402
				c-29.946,15.785-62.609,26.245-96.013,30.942c-8.353,1.165-16.751,1.978-25.166,2.434c-2.103,0.111-4.185,0.234-6.401,0.279
				l-3.275,0.093l-1.63,0.043l-1.463,0.006l-2.926,0.013l-1.463,0.007l-1,0.002l-0.79-0.014l-6.315-0.137
				c-16.835-0.589-33.604-2.612-50.075-6.024c-32.936-6.852-64.656-19.398-93.242-36.973c-14.322-8.743-27.75-18.877-40.296-29.928
				l-4.653-4.203l-4.692-4.45l-1.158-1.108l-1.034-1.035l-2.068-2.071l-2.256-2.271l-2.159-2.268
				c-5.749-6.051-11.288-12.307-16.488-18.838c-20.931-26.021-37.168-55.739-47.854-87.216
				c-5.343-15.738-9.356-31.908-11.852-48.292c-1.257-8.188-2.167-16.423-2.728-24.674c-0.303-4.143-0.461-8.217-0.568-12.427
				l-0.051-3.184l-0.024-1.591c-0.011-0.541-0.015-1.059-0.006-1.531l0.054-5.854c0.082-8.778,7.263-15.828,16.041-15.746
				C141.805,391.152,148.71,397.988,149.003,406.44z"/>
		</g>
		<g>
			<path fill="#415E67" d="M493.378,478.711l115.911,107.086c6.492,5.998,6.894,16.123,0.896,22.615s-16.124,6.894-22.616,0.896
				c-0.162-0.15-0.363-0.346-0.518-0.501L476.079,496.609c-4.835-4.888-4.792-12.771,0.097-17.605
				C480.923,474.308,488.517,474.233,493.378,478.711z"/>
		</g>
	</g>
</g>
<g id="logo_v3">
	<polygon display="none" fill="none" stroke="#CEBA55" stroke-width="33" stroke-linecap="square" stroke-miterlimit="10" points="
		256.366,706.002 91.788,420.945 256.366,135.888 585.522,135.888 750.102,420.945 585.522,706.002 	"/>
	<polyline display="none" fill="none" stroke="#CEBA55" stroke-width="33" stroke-linecap="square" stroke-miterlimit="10" points="
		379.8,420.945 379.8,135.888 338.655,135.888 297.511,135.888 256.366,135.888 235.794,171.52 215.222,207.152 194.649,242.784 
		174.077,278.416 153.505,314.048 132.933,349.681 112.36,385.312 91.788,420.945 112.36,456.577 132.933,492.209 153.505,527.842 
		174.077,563.474 194.649,599.105 215.222,634.738 235.794,670.37 256.366,706.002 297.511,706.002 338.655,706.002 379.8,706.002 
		420.944,706.002 462.089,706.002 503.233,706.002 544.378,706.002 585.522,706.002 606.096,670.37 626.668,634.738 647.24,599.105 
		667.812,563.474 688.385,527.842 708.957,492.209 729.529,456.577 750.102,420.945 729.529,385.312 708.957,349.681 
		688.385,314.048 667.812,278.416 647.24,242.784 626.668,207.152 606.096,171.52 585.522,135.888 544.378,135.888 503.233,135.888 
		462.089,135.888 462.089,420.945 	"/>
	<g>
		<polyline fill="none" stroke="#FFFFFF" stroke-width="52" stroke-linecap="square" stroke-miterlimit="10" points="
			651.604,593.417 680.697,564.324 709.791,535.23 738.885,506.137 728.236,466.394 717.588,426.651 706.938,386.908 
			696.29,347.166 685.641,307.424 674.991,267.681 664.343,227.938 653.693,188.196 613.951,177.547 574.209,166.898 
			534.466,156.249 494.724,145.6 454.981,134.951 415.239,124.302 375.496,113.653 335.753,103.005 306.659,132.099 
			277.566,161.192 248.472,190.286 450.038,391.852 		"/>
		<polyline fill="none" stroke="#FFFFFF" stroke-width="52" stroke-linecap="square" stroke-miterlimit="10" points="
			190.285,248.473 161.191,277.566 132.098,306.66 103.004,335.754 113.653,375.496 124.302,415.239 134.951,454.981 145.6,494.724 
			156.249,534.466 166.898,574.209 177.547,613.951 188.196,653.693 227.938,664.343 267.681,674.991 307.424,685.641 
			347.166,696.29 386.908,706.938 426.651,717.588 466.394,728.236 506.136,738.885 535.229,709.792 564.323,680.698 
			593.417,651.604 391.851,450.039 		"/>
	</g>
</g>
</svg>
