<?xml version="1.0" encoding="utf-8"?>
<!-- Generator: Adobe Illustrator 16.0.0, SVG Export Plug-In . SVG Version: 6.00 Build 0)  -->
<!DOCTYPE svg PUBLIC "-//W3C//DTD SVG 1.1//EN" "http://www.w3.org/Graphics/SVG/1.1/DTD/svg11.dtd">
<svg version="1.1" id="Layer_1" xmlns="http://www.w3.org/2000/svg" xmlns:xlink="http://www.w3.org/1999/xlink" x="0px" y="0px"
	 width="100px" height="100px" viewBox="0 0 100 100" enable-background="new 0 0 100 100" xml:space="preserve">
<g>
	<path fill="#CC7431" d="M58.259,1.708c-21.554,0-39.016,17.47-39.016,39.015c0,7.369,2.043,14.258,5.593,20.138L5.92,79.777
		l0.065,0.064c-2.019,1.935-3.259,4.677-3.259,7.778c-0.001,5.988,4.771,10.673,10.754,10.673c3.057-0.003,5.791-1.224,7.741-3.216
		l0.047,0.049l19.518-19.519c5.257,2.637,11.188,4.131,17.471,4.131c21.556,0,39.015-17.468,39.015-39.015
		C97.273,19.178,79.813,1.708,58.259,1.708z M58.495,64.397c-13.472,0-24.385-10.918-24.385-24.385
		c0-13.465,10.913-24.384,24.385-24.384c13.472,0,24.384,10.918,24.384,24.384C82.88,53.479,71.967,64.397,58.495,64.397z"/>
</g>
</svg>
